<?xml version="1.0" standalone="no"?><!DOCTYPE svg PUBLIC "-//W3C//DTD SVG 1.1//EN" "http://www.w3.org/Graphics/SVG/1.1/DTD/svg11.dtd"><svg t="1612691733610" class="icon" viewBox="0 0 1024 1024" version="1.1" xmlns="http://www.w3.org/2000/svg" p-id="4512" xmlns:xlink="http://www.w3.org/1999/xlink" width="200" height="200"><defs><style type="text/css"></style></defs><path d="M512 1024c282.768 0 512-229.232 512-512C1024 229.232 794.768 0 512 0 229.232 0 0 229.232 0 512c0 282.768 229.232 512 512 512z m-2.752-800c39.92-0.064 78.384 15.568 107.568 43.744 29.456 29.504 45.76 70.336 45.04 112.736v8.144c-2.352 10.88-11.68 18.592-22.448 18.592s-20.096-7.728-22.448-18.592v-8.272c0-62.08-46.944-108.864-109.216-108.864-63.92 0-114 47.472-114 108.512v42.4h258.944c54.816 0.16 99.2 46.112 99.312 102.832v172c-0.112 56.72-44.512 102.656-99.312 102.768H371.36c-54.816-0.112-99.232-46.048-99.376-102.768v-172c0.112-47.552 31.904-88.736 76.704-99.36V380c-0.208-43.024 17.44-84.064 48.448-112.72A162.784 162.784 0 0 1 507.2 224z m2.88 278.096h-0.32c-42.8 0.848-78.56 33.92-84.16 77.824-5.6 43.904 20.688 85.44 61.808 97.712v35.008c1.28 6.16 4.896 11.52 10.016 14.912a22.08 22.08 0 0 0 17.248 3.264c8.96-1.952 15.952-9.184 17.824-18.448V677.44c40.8-12.544 66.752-53.92 61.168-97.584-5.584-43.664-41.024-76.64-83.584-77.76z m-0.256 46.464c22.8-0.112 41.392 18.928 41.488 42.528l-0.064 0.272a43.504 43.504 0 0 1-12.048 30.24 40.608 40.608 0 0 1-29.184 12.56c-22.784 0-41.264-19.088-41.296-42.672-0.112-23.6 18.288-42.816 41.104-42.928z" p-id="4513"></path></svg>