<?xml version="1.0" standalone="no"?><!DOCTYPE svg PUBLIC "-//W3C//DTD SVG 1.1//EN" "http://www.w3.org/Graphics/SVG/1.1/DTD/svg11.dtd"><svg t="1612774559656" class="icon" viewBox="0 0 1024 1024" version="1.1" xmlns="http://www.w3.org/2000/svg" p-id="13123" xmlns:xlink="http://www.w3.org/1999/xlink" width="200" height="200"><defs><style type="text/css"></style></defs><path d="M515.1 513.6m-429 0a429 429 0 1 0 858 0 429 429 0 1 0-858 0Z" fill="#1296db" p-id="13124"></path><path d="M794.8 773.8C745.7 674.6 670.7 562.3 581 556.7c64.7-25.5 110.5-88.5 110.5-162.3 0-96.3-78.1-174.4-174.4-174.4s-174.4 78.1-174.4 174.4c0 73.7 45.8 136.8 110.5 162.3-90.6 5.7-166.1 120-215.2 220 69.6 73.3 168 119 277 119 110.5-0.1 210-46.9 279.8-121.9z" fill="#ffffff" p-id="13125"></path></svg>