<svg width="20" height="20" viewBox="0 0 20 20" fill="none" xmlns="http://www.w3.org/2000/svg">
<path fill-rule="evenodd" clip-rule="evenodd" d="M4.62739 1.25C2.9347 1.25 1.5625 2.6222 1.5625 4.31489L1.56396 12.643C1.56403 14.3356 2.9362 15.7078 4.62885 15.7078H6.48326L6.93691 17.6869L6.93884 17.6948C7.16894 18.6441 8.28598 19.0599 9.08073 18.4921L12.7965 15.7078H15.5001C17.1928 15.7078 18.565 14.3355 18.565 12.6428L18.5635 4.31477C18.5635 2.62213 17.1913 1.25 15.4986 1.25H4.62739ZM5.98265 9.89255C6.68783 9.89255 7.2595 9.32089 7.2595 8.61571C7.2595 7.91053 6.68783 7.33887 5.98265 7.33887C5.27747 7.33887 4.70581 7.91053 4.70581 8.61571C4.70581 9.32089 5.27747 9.89255 5.98265 9.89255ZM9.95604 9.89255C10.6612 9.89255 11.2329 9.32089 11.2329 8.61571C11.2329 7.91053 10.6612 7.33887 9.95604 7.33887C9.25086 7.33887 8.6792 7.91053 8.6792 8.61571C8.6792 9.32089 9.25086 9.89255 9.95604 9.89255ZM15.2124 8.61571C15.2124 9.32089 14.6407 9.89255 13.9355 9.89255C13.2304 9.89255 12.6587 9.32089 12.6587 8.61571C12.6587 7.91053 13.2304 7.33887 13.9355 7.33887C14.6407 7.33887 15.2124 7.91053 15.2124 8.61571Z" fill="#8A919F"/>
</svg>
