<?xml version="1.0" standalone="no"?><!DOCTYPE svg PUBLIC "-//W3C//DTD SVG 1.1//EN" "http://www.w3.org/Graphics/SVG/1.1/DTD/svg11.dtd"><svg t="1612690784751" class="icon" viewBox="0 0 1024 1024" version="1.1" xmlns="http://www.w3.org/2000/svg" p-id="1242" xmlns:xlink="http://www.w3.org/1999/xlink" width="200" height="200"><defs><style type="text/css"></style></defs><path d="M860.7 192.6h-697c-27.5 0-49.8 22.3-49.8 49.8V780c0 27.5 22.3 49.8 49.8 49.8h697c3.7 0 7.4-0.4 11-1.2 6.3 0 12.3-2.3 16.9-6.5v-1.5c13.5-9.1 21.7-24.3 21.9-40.6V242.3c0-27.5-22.3-49.7-49.8-49.7zM512.2 556L169.9 248.6h686.6L512.2 556zM163.7 309.8l229.5 206.4-229.5 228.7V309.8z m266.6 238.7l66.2 59.5c9.4 8.4 23.7 8.4 33.1 0l70.5-63 215.8 235H198.8l231.5-231.5z m206.3-36.8l224-199.1v443.1l-224-244z m0 0" p-id="1243"></path></svg>