<?xml version="1.0" standalone="no"?><!DOCTYPE svg PUBLIC "-//W3C//DTD SVG 1.1//EN" "http://www.w3.org/Graphics/SVG/1.1/DTD/svg11.dtd"><svg t="1645287997122" class="icon" viewBox="0 0 1024 1024" version="1.1" xmlns="http://www.w3.org/2000/svg" p-id="2091" xmlns:xlink="http://www.w3.org/1999/xlink" width="200" height="200"><defs><style type="text/css"></style></defs><path d="M872.802928 755.99406 872.864326 755.99406 872.864326 755.624646Z" p-id="2092"></path><path d="M809.889039 214.109426c-164.252925-164.278507-431.528224-164.278507-595.778078 0-164.280554 164.250878-164.280554 431.527201 0 595.781148 164.250878 164.276461 431.526177 164.276461 595.778078 0C974.16857 645.636626 974.16857 378.360304 809.889039 214.109426M767.13326 767.130701c-140.681066 140.712789-369.617176 140.683113-510.281869 0-140.694369-140.67902-140.694369-369.585453 0-510.279822 140.664693-140.664693 369.601826-140.694369 510.281869 0C907.812279 397.516596 907.812279 626.481358 767.13326 767.130701" p-id="2093"></path><path d="M602.493525 338.736864c-32.254611 0-63.968917 16.619516-90.523713 47.111994-26.464745-30.491455-58.211796-47.111994-90.465384-47.111994-75.30715 0-136.547933 66.088184-136.547933 147.31823 0 38.565341 24.124444 89.705068 55.092759 117.8992 28.496008 35.20685 144.231939 140.649344 172.305321 140.649344 26.764574 0 139.576919-100.787474 170.33955-139.365094 32.132838-29.330002 56.360635-80.55978 56.360635-119.18345C739.056807 404.825049 677.801698 338.736864 602.493525 338.736864M644.593366 563.495838l-3.310396 3.013637-2.805906 3.491521c-23.599488 29.627784-93.117794 91.060949-126.208447 112.990401-33.985022-22.557762-106.159832-87.301322-128.297015-114.603131l-2.685155-3.311419-3.163039-2.892887c-21.005406-19.094894-36.640502-55.959499-36.640502-76.128865 0-50.065256 35.894512-90.792842 80.021521-90.792842 15.33629 0 32.31294 9.801227 47.829332 27.643594l42.636053 49.097208 42.663682-49.067532c15.516392-17.841344 32.522718-27.67327 47.860031-27.67327 44.128033 0 80.051197 40.726563 80.051197 90.792842C682.544723 506.314511 666.940326 543.117718 644.593366 563.495838" p-id="2094"></path></svg>