<?xml version="1.0" standalone="no"?><!DOCTYPE svg PUBLIC "-//W3C//DTD SVG 1.1//EN" "http://www.w3.org/Graphics/SVG/1.1/DTD/svg11.dtd"><svg t="1612690839071" class="icon" viewBox="0 0 1024 1024" version="1.1" xmlns="http://www.w3.org/2000/svg" p-id="2199" xmlns:xlink="http://www.w3.org/1999/xlink" width="200" height="200"><defs><style type="text/css"></style></defs><path d="M785.066667 725.333333c-4.266667 55.466667-29.866667 106.666667-72.533334 140.8 38.4 17.066667 93.866667 34.133333 93.866667 72.533334H217.6c0-34.133333 55.466667-55.466667 89.6-72.533334-38.4-38.4-64-89.6-72.533333-140.8v-17.066666l-72.533334 72.533333c-17.066667 17.066667-34.133333 17.066667-34.133333-38.4 0-34.133333 110.933333-302.933333 110.933333-302.933333v-85.333334c4.266667-153.6 128-273.066667 281.6-268.8 145.066667 4.266667 260.266667 119.466667 264.533334 264.533334v89.6s110.933333 268.8 110.933333 302.933333c0 55.466667-17.066667 55.466667-38.4 34.133333-55.466667-51.2-72.533333-72.533333-72.533333-72.533333v21.333333z" p-id="2200"></path></svg>