<?xml version="1.0" standalone="no"?><!DOCTYPE svg PUBLIC "-//W3C//DTD SVG 1.1//EN" "http://www.w3.org/Graphics/SVG/1.1/DTD/svg11.dtd"><svg t="1612938582154" class="icon" viewBox="0 0 1024 1024" version="1.1" xmlns="http://www.w3.org/2000/svg" p-id="2953" xmlns:xlink="http://www.w3.org/1999/xlink" width="200" height="200"><defs><style type="text/css"></style></defs><path d="M927.744 480.256H96.256c-17.408 0-31.744 14.336-31.744 31.744 0 17.408 14.336 31.744 31.744 31.744h831.488c17.408 0 32.256-14.336 32.256-31.744-0.512-17.408-14.848-31.744-32.256-31.744zM894.464 639.488c-17.408 0-32.256 14.336-32.256 31.744v159.232c0 17.408-14.336 31.744-32.256 31.744h-192c-17.408 0-32.256 14.336-32.256 31.744 0 17.408 14.336 31.744 32.256 31.744h192c52.736 0 95.744-43.008 95.744-95.744V670.72c0.512-16.896-13.824-31.232-31.232-31.232zM350.72 862.208H190.976c-17.408 0-32.256-14.336-32.256-31.744v-159.232c0-17.408-14.336-31.744-32.256-31.744s-32.256 14.336-32.256 31.744v159.232c0 52.736 43.008 95.744 95.744 95.744h159.744c17.408 0 32.256-14.336 32.256-31.744 1.024-17.92-13.312-32.256-31.232-32.256zM126.976 384.512c17.408 0 32.256-14.336 32.256-31.744V193.536c0-17.408 14.336-31.744 32.256-31.744h159.744c17.408 0 32.256-14.336 32.256-31.744 0-17.408-14.336-31.744-32.256-31.744H190.976c-52.736 0-95.744 43.008-95.744 95.744V353.28c-0.512 17.408 13.824 31.232 31.744 31.232zM638.464 161.792h192c17.408 0 32.256 14.336 32.256 31.744v159.232c0 17.408 14.336 31.744 32.256 31.744 17.408 0 32.256-14.336 32.256-31.744V193.536c0-52.736-43.008-95.744-95.744-95.744h-192c-17.408 0-32.256 14.336-32.256 31.744-0.512 17.92 13.824 32.256 31.232 32.256z" p-id="2954"></path><path d="M703.488 737.28H320.512c-25.6 0-46.592-20.992-46.592-46.592V333.312c0-25.6 20.992-46.592 46.592-46.592h382.976c25.6 0 46.592 20.992 46.592 46.592v357.376c0 25.6-20.992 46.592-46.592 46.592z" p-id="2955"></path></svg>