<svg width="20" height="20" viewBox="0 0 20 20" fill="none" xmlns="http://www.w3.org/2000/svg">
<path fill-rule="evenodd" clip-rule="evenodd" d="M10.8389 1.89381C11.0873 2.03868 11.2939 2.24532 11.4388 2.49366L18.9369 15.0065C19.4007 15.8015 19.1322 16.8221 18.3371 17.2859C18.0822 17.4346 17.7924 17.5129 17.4973 17.5129H2.50041C1.57993 17.5129 0.83374 16.7667 0.83374 15.8462C0.83374 15.5512 0.912088 15.2614 1.06078 15.0065L8.5595 2.49366C9.0233 1.69857 10.0438 1.43001 10.8389 1.89381ZM10.3118 13.3459C10.6283 13.3459 10.8848 13.6025 10.8848 13.9189V14.4918C10.8848 14.8082 10.6283 15.0647 10.3118 15.0647H9.73893C9.42252 15.0647 9.16602 14.8082 9.16602 14.4918V13.9189C9.16602 13.6025 9.42252 13.3459 9.73893 13.3459H10.3118ZM10.8356 7.09513C10.8356 6.86502 10.6491 6.67847 10.419 6.67847H9.58512C9.35501 6.67847 9.16846 6.86502 9.16846 7.09513V12.0956C9.16846 12.3257 9.35501 12.5123 9.58512 12.5123H10.419C10.6491 12.5123 10.8356 12.3257 10.8356 12.0956V7.09513Z" fill="#515767"/>
</svg>
