<svg width="20" height="20" viewBox="0 0 20 20" fill="none" xmlns="http://www.w3.org/2000/svg">
<path fill-rule="evenodd" clip-rule="evenodd" d="M10.4167 6.40399C5.35406 6.40399 1.25 10.5675 1.25 15.7035C1.25 16.0225 1.28448 16.4512 1.35344 16.9898C1.36807 17.1039 1.47243 17.1846 1.58655 17.17C1.6483 17.1621 1.70328 17.127 1.73643 17.0743L1.86865 16.8676C1.99553 16.6731 2.10644 16.5147 2.20137 16.3925C3.69554 14.4692 6.13777 13.3823 9.35515 13.3378L10.4167 13.3364V17.0757C10.4167 17.3101 10.6086 17.5 10.8453 17.5C10.959 17.5 11.068 17.4553 11.1483 17.3757L18.145 10.45C18.3961 10.2015 18.3961 9.79853 18.145 9.55L11.1483 2.62426C10.981 2.45858 10.7096 2.45858 10.5422 2.62426C10.4618 2.70383 10.4167 2.81174 10.4167 2.92426V6.40399Z" fill="#8A919F"/>
</svg>
